<?xml version="1.0" encoding="UTF-8"?>
<svg id="paper" xmlns="http://www.w3.org/2000/svg" viewBox="0 0 599.02 132.93">
  <path d="m49.99,46.67c-.57-5.11,2.91-7.35,5.91-9.96,6.79-5.93,13.45-11.97,17.44-20.37.79-1.67.81-3.08-.5-4.42-1.42-1.47-3.01-1.6-4.47-.21-6.58,6.29-13.04,12.71-17.79,20.61-1.74,2.9-4.63,4.46-7.09,6.5-3.98,3.3-8.16,6.36-12.28,9.49-1,.76-1.95,1.64-3.32,1.89-.35-1.65.5-2.98.97-4.41,1.92-5.85,6.54-9.61,10.47-13.9,3.5-3.82,7.18-7.48,10.31-11.64.77-1.03,1.38-2.12,1.48-3.45.11-1.49.17-2.97-1.46-3.74-1.57-.74-2.88-.26-4.14.85-6.29,5.58-11.88,11.87-15.34,19.55-3.69,8.19-10.81,12.1-17.66,16.52-2.76,1.78-5.63,3.43-8.8,4.4-.63.19-1.32.45-1.93.34-1-.17-1.78-.08-1.81,1.07-.03,1.01.8,1.03,1.61,1.14,1.64.23,3.13-.02,4.67-.66,5.79-2.44,11.02-5.85,16.66-9.83-.63,1.65-1.14,2.7-1.43,3.81-.61,2.34-.6,4.66,1.32,6.41,1.81,1.64,3.93,1.77,6.11.66,4.11-2.08,7.52-5.17,11.18-7.91.86-.65,1.73-1.29,2.62-1.95.62.83.36,1.61.36,2.33,0,1.7.69,3.06,2.13,3.78,1.51.75,3.09.64,4.51-.48,6.86-5.41,13.73-10.81,20.59-16.22.99-.78,1.97-1.57,3.24-2.58-1.09,4.12-2.03,7.88-3.12,11.6-.37,1.26-.48,2.52-.49,3.79-.03,2.33,1.29,4.12,3,3.99,2.24-.17,2.84-1.9,3-3.79.17-1.95.08-3.9.46-5.87,1.06-5.56,2.99-10.81,5.3-15.94.9-1.99,2.75-2.96,4.27-4.28,2.45-2.1,5.03-4.05,7.18-6.48.61-.7,1.17-1.46,1.65-2.26,1.11-1.86,1.36-3.73-.6-5.18-1.92-1.42-3.16-.07-4.54,1.21-4.07,3.77-7.4,8.17-10.98,12.37-3.32,3.9-7.7,6.88-11.68,10.18-5.48,4.55-11.06,8.96-17.03,13.03Z"/>
  <path d="m259.68,46.16c1.94-2.48,3.88-4.33,6.07-5.9,1.21-.87,1.88-1.23,1.66-2.96-.16-1.23-.93-2.22-2.04-2.52-1.55-.43-2.27-.08-3.25,1.17-1.39,1.75-3.58,4.38-5.38,5.65-3.82,2.69-5.86,5.32-8.93,8.7-.38.42-.6.89-.19,1.35.38.42,1.03.42,1.41.13.87-.66,1.64-1.46,2.62-2.36,1.89,4.9,5.64,2.62,8.74,2.12,4.13-.68,8.18-1.87,12.27-2.84,2.98-.7,3.46-.36,3.68,2.61.17,2.33,1.59,3.75,3.9,3.81,2.64.07,5.12-.78,7.63-1.47,1.54-.42,3.12-.71,4.6-1.29,3.11-1.2,5.83-1.39,8.49,1.3,1.41,1.42,3.74.81,5.63.68,3.35-.24,6.69-.75,10.02-1.23,3.15-.45,6.31-.02,9.39.28,7.64.76,14.14-1.32,19.63-6.68.78-.77,2.21-1.59,1.36-2.94-.93-1.49-2.29-.4-3.41-.02-1.19.41-2.34.95-3.47,1.53-2.45,1.26-4.92,2.23-7.71,1.12-.15-.06-.34-.03-.5-.02-4.31.13-8.56.49-12.87-.74-2.77-.8-5.52,1.1-8.32,1.64-2.92.56-5.51,1.02-8.14-1.37-2.53-2.29-5.87-2.35-9.06-1.08-2.66,1.05-5.26,2.23-8.02,3-1.2.33-1.6.09-1.74-1.24-.45-4.51-2.85-6.08-7.13-4.69-5.35,1.75-10.75,3.26-16.91,4.3Z"/>
  <path d="m249.33,19.2c-6.69,10.17-10.93,22.25-23.15,28.08,1.47.79,2.59.15,3.53-.2.99-.37,1.77-1.28,2.66-1.93.94-.69,1.91-1.34,3.09-2.18.07,2.46-1.17,4.45-.42,6.73,1.32,4.05,5.69,5.92,9.35,3.75,2.42-1.43,2.43-3.71-.28-5.05-2.25-1.11-2.34-2.55-1.68-4.55,2.64-7.99,7.5-14.57,12.45-21.21,2.9-3.89,6.29-5.23,10.86-5.49,12.06-.67,24.08-.67,36.1.62,3.84.41,7.67.82,11.45,1.63.76.16,1.6.15,1.87-.83.31-1.14-.35-1.62-1.33-2.06-4.37-1.97-9.07-2.47-13.72-3.05-8.4-1.05-16.84-1.34-25.3-1.03-4.04.15-8.07.55-12.39.86,1.69-2.73,2.92-5.51,5.27-7.58,1.7-1.5,1.77-3.53.35-4.9-1.41-1.36-3.7-1.02-5.04.74-3.29,4.34-7.44,7.96-10.29,12.67-.55.91-1.59.94-2.48,1.09-4,.66-6.77,1.28-11.05,2.17-1.72.41-3.46.88-4.98,1.19-.86.24-2.37.17-2.01,1.7.33,1.4,1.51,1.05,2.51.7,4.79-1.34,9.54-1.76,14.63-1.9Z"/>
  <path d="m135.03,45.94c.38-1.51,1.33-2.53.5-3.94-1.25-2.14-3.22-2.4-5.74-.33-3.35,2.73-7.12,4.46-11.26,5.5-2.38.59-4.5,1.26-5.3-2.35-.38-1.7-2.28-2.45-4.18-2.01-.97.22-1.89.7-2.87.9-1.37.28-2.94,1.02-3.5-1.28-.18-.76-1.04-1.14-1.76-1.37-6.21-2-15.4-1.23-20.17,5.39-1.25,1.73-2.03,3.59-.9,5.66,1,1.84,2.69,2.3,4.7,2.41,4.02.22,7.87-.4,11.61-1.85,3.53-1.36,7.22-2.16,10.88-3.06,1.11-.27,1.42.03,1.93.83,1.33,2.07,3.13,2.75,5.64,2.23,4.37-.92,8.72-1.82,12.72-3.93.65-.34.88-.35,1.17.51.85,2.5,2.71,3.16,5.21,2.69,3.16-.6,6.14-1.7,9.04-3.04,1.64-.76,3.16-.76,4.81.03,6.43,3.09,12.98,1.96,19.5.32,1.44-.36,2.71-1.22,2.37-3.09-.32-1.77-1.75-1.83-3.13-1.93-2.72-.2-5.4.24-8.04.72-3.16.58-6.05,0-8.72-1.59-2.43-1.45-4.69-1.42-7.14-.1-2.21,1.18-4.51,2.21-7.36,2.69Zm-49.03,3.35c2.03-3.36,7.67-5.06,11.9-3.52-3.94,1.66-7.78,2.86-11.9,3.52Z"/>
  <path d="m210.08,2.96c-2.48.27-4.36,1.71-6.19,3.23-9.14,7.64-16.85,16.55-23.03,26.78-1.32,2.18-2.72,3.75-5.45,3.78-1.15.01-2.28.53-3.43.79-1.36.3-2.32.95-2.45,2.5-.14,1.68.84,2.75,2.21,2.99,2.68.47,2.15,1.55,1.13,3.31-3.19,5.53-6.23,11.14-9.33,16.72-.58,1.04-1.1,2.12-1.99,2.94-.65.6-.93,1.31-.18,1.96.62.53,1.4.61,2-.09.6-.7,1.39-1.17,1.88-2.03,4-7.03,8.08-14.01,12.06-21.05.69-1.22,1.53-1.86,2.85-2.22,6.41-1.77,12.77-3.67,18.62-7.02,9.76-5.59,15.39-14.04,17.3-25.13.68-3.95-2.4-7.7-6.01-7.48Zm-26.46,31.81c3.78-6.16,7.63-11.32,11.94-16.13,3.14-3.5,6.69-6.5,10.86-8.7,1.87-.99,2.57-.43,2.26,1.63-.56,3.77-1.88,7.21-4.1,10.31-5.03,7.04-12.41,10.14-20.95,12.89Z"/>
  <path d="m215.11,48.61c2.05-.91,4.08-1.87,6.16-2.71,1.46-.59,2.25-1.62,1.94-3.14-.34-1.62-1.8-2.58-3.19-2.35-4.63.77-9.25,1.74-12.75,5.4-1.4,1.47-2.71,3-1.99,5.14.68,2.03,2.3,3,4.45,3.18,5.29.45,10.35-.39,15.19-2.57,1.09-.49,2.13-1.08,1.59-2.68-.51-1.53-1.7-1.58-2.87-1.39-2.79.45-5.57,1.04-8.35,1.57-.06-.15-.13-.3-.19-.45Zm3.27-3.91c-1.96,1.94-3.99,2.46-6.05,2.91,1.58-1.51,3.32-2.67,6.05-2.91Z"/>
  <path d="m187.22,49.96c-.16-.02-.59-.02-.99-.14-.64-.19-1.04-1.4-1.88-.56-.17.17.25.89.31,1.37.14,1.19.99,1.68,1.94,1.59,2.01-.18,4-.61,5.73-1.76,1.03-.68,1.69-.84,2.67.3,1.69,1.97,3.91,2.13,6.2,1,2.76-1.37,2.99-3.7.4-5.27-.93-.56-.79-1.2-.77-1.9.04-1.1-.45-1.93-1.38-2.2-1.02-.29-2.22-.49-3.05.53-.86,1.05-1.69,2.13-2.41,3.28-1.03,1.64-4.63,3.8-6.77,3.76Z"/>
  <path d="m351.53,27.83c-1.71,0-4.17,2.18-4.16,3.83,0,1.27.73,2.09,2.02,2.18,1.39.1,3.93-2.87,3.92-4.43-.01-1.25-.67-1.65-1.78-1.58Z"/>
  <path d="m208.71,33.47c-1.61,0-2.8.81-2.79,2.36,0,1.19.69,1.96,1.89,2.05,1.31.09,2.57-1.46,2.56-2.92-.01-1.17-.63-1.55-1.67-1.48Z"/>
  <path d="m172.09,33.34c1.33.16,1.83-.58,1.92-1.77.12-1.51-1.03-2.04-2.05-2.01-1.02.04-2.05.65-1.9,2.16.14,1.35.84,1.75,2.02,1.62Z"/>
</svg>